<svg xmlns="http://www.w3.org/2000/svg" xmlns:xlink="http://www.w3.org/1999/xlink" width="500" zoomAndPan="magnify" viewBox="0 0 375 374.999991" height="500" preserveAspectRatio="xMidYMid meet" version="1.0"><defs><g/><clipPath id="3e76473ee2"><path d="M 155 50.425781 L 220 50.425781 L 220 99 L 155 99 Z M 155 50.425781 " clip-rule="nonzero"/></clipPath><clipPath id="c10bf9a5ed"><path d="M 134.816406 98 L 239.816406 98 L 239.816406 190 L 134.816406 190 Z M 134.816406 98 " clip-rule="nonzero"/></clipPath><clipPath id="56ccdac468"><path d="M 134.816406 161 L 156 161 L 156 218 L 134.816406 218 Z M 134.816406 161 " clip-rule="nonzero"/></clipPath><clipPath id="db85cfcb08"><path d="M 160 131 L 239.816406 131 L 239.816406 231.925781 L 160 231.925781 Z M 160 131 " clip-rule="nonzero"/></clipPath></defs><g clip-path="url(#3e76473ee2)"><path fill="#6d6e71" d="M 187.496094 53.710938 C 205.308594 53.710938 213.40625 83.960938 216.300781 98.734375 L 219.679688 98.734375 C 216.796875 83.449219 208.179688 50.425781 187.496094 50.425781 C 166.804688 50.425781 158.191406 83.449219 155.3125 98.738281 L 158.6875 98.738281 C 161.582031 83.964844 169.679688 53.710938 187.496094 53.710938 Z M 187.496094 53.710938 " fill-opacity="1" fill-rule="nonzero"/></g><g clip-path="url(#c10bf9a5ed)"><path fill="#fd8f08" d="M 230.53125 98.738281 L 144.457031 98.738281 C 139.179688 98.738281 134.863281 103.050781 134.863281 108.324219 L 134.863281 161.9375 C 134.882812 161.945312 134.90625 161.957031 134.929688 161.96875 C 135.746094 162.347656 136.519531 162.75 137.140625 163.078125 L 137.183594 163.101562 C 138.707031 163.914062 140.164062 164.792969 141.515625 165.703125 C 142.9375 166.664062 144.289062 167.667969 145.546875 168.683594 L 145.574219 168.707031 C 146.964844 169.847656 148.1875 170.925781 149.308594 171.996094 C 150.382812 173.015625 151.480469 174.136719 152.75 175.511719 L 152.804688 175.574219 C 154.011719 176.910156 155.050781 178.128906 155.988281 179.304688 C 156.898438 180.433594 157.839844 181.679688 158.949219 183.230469 C 159.8125 184.4375 160.707031 185.773438 161.6875 187.3125 L 161.71875 187.367188 C 162.085938 187.949219 162.480469 188.585938 162.886719 189.261719 C 162.898438 189.246094 162.945312 189.171875 162.945312 189.171875 C 164.804688 186.417969 166.375 184.175781 167.886719 182.113281 C 169.753906 179.570312 171.46875 177.332031 173.125 175.277344 C 174.832031 173.136719 176.695312 170.917969 178.667969 168.683594 C 180.492188 166.613281 182.46875 164.484375 184.539062 162.367188 C 186.726562 160.144531 188.761719 158.191406 190.765625 156.375 C 191.796875 155.429688 192.894531 154.46875 194.027344 153.507812 C 195.289062 152.4375 196.355469 151.5625 197.375 150.753906 C 199.664062 148.933594 202.019531 147.207031 204.351562 145.621094 C 209.378906 142.214844 214.5 139.363281 219.566406 137.160156 C 222.277344 135.976562 225.035156 134.953125 227.757812 134.121094 C 229.027344 133.726562 230.417969 133.351562 232 132.972656 C 233.378906 132.652344 234.835938 132.324219 236.359375 132.082031 C 237.757812 131.855469 238.96875 131.691406 240.121094 131.566406 L 240.121094 108.339844 C 240.125 103.050781 235.808594 98.738281 230.53125 98.738281 Z M 230.53125 98.738281 " fill-opacity="1" fill-rule="nonzero"/></g><g clip-path="url(#56ccdac468)"><path fill="#6d6e71" d="M 148.617188 191.667969 L 148.367188 190.859375 L 147.808594 189.132812 C 147.433594 188.011719 147.027344 186.878906 146.609375 185.726562 C 146.242188 184.730469 145.839844 183.675781 145.300781 182.3125 C 144.800781 181.078125 144.34375 179.972656 143.902344 178.929688 C 143.445312 177.882812 142.929688 176.699219 142.410156 175.585938 L 142.316406 175.378906 C 141.8125 174.3125 141.339844 173.300781 140.839844 172.316406 L 140.816406 172.257812 C 140.320312 171.25 139.777344 170.207031 139.152344 169.0625 C 138.613281 168.054688 138.035156 167.03125 137.386719 165.914062 C 136.800781 164.933594 136.171875 163.882812 135.511719 162.859375 C 135.320312 162.558594 135.125 162.261719 134.933594 161.96875 L 134.933594 208.636719 C 134.933594 213.441406 139.25 217.375 144.523438 217.375 L 155.867188 217.375 L 148.722656 192.023438 Z M 148.617188 191.667969 " fill-opacity="1" fill-rule="nonzero"/></g><g clip-path="url(#db85cfcb08)"><path fill="#fe5020" d="M 234.726562 134.285156 C 232.8125 135.347656 230.871094 136.546875 228.785156 137.953125 C 227.785156 138.632812 226.8125 139.320312 225.898438 139.988281 C 224.992188 140.65625 224.0625 141.367188 223.0625 142.152344 C 221.152344 143.671875 219.308594 145.234375 217.578125 146.792969 L 217.550781 146.820312 C 216.617188 147.652344 215.6875 148.527344 214.90625 149.277344 C 214.0625 150.074219 213.214844 150.902344 212.300781 151.824219 L 212.277344 151.851562 C 210.769531 153.355469 209.15625 155.054688 207.203125 157.199219 C 203.960938 160.785156 200.730469 164.667969 197.589844 168.726562 C 194.566406 172.640625 191.5625 176.804688 188.652344 181.097656 C 187.480469 182.832031 185.941406 185.140625 184.4375 187.515625 L 184.414062 187.554688 C 183.171875 189.484375 181.847656 191.628906 180.359375 194.109375 C 179 196.359375 177.691406 198.652344 176.476562 200.800781 C 175.84375 201.929688 175.230469 203.054688 174.65625 204.121094 L 173.765625 205.804688 L 173.347656 206.609375 L 160.386719 232.113281 L 230.53125 232.113281 C 235.808594 232.113281 240.125 227.796875 240.125 222.519531 L 240.125 131.558594 C 238.246094 132.40625 236.445312 133.316406 234.769531 134.265625 Z M 234.726562 134.285156 " fill-opacity="1" fill-rule="nonzero"/></g><g fill="#fe5020" fill-opacity="1"><g transform="translate(36.982198, 274.841862)"><g><path d="M 12.453125 0.34375 C 11.117188 0.34375 9.816406 0.160156 8.546875 -0.203125 C 7.285156 -0.578125 6.125 -1.128906 5.0625 -1.859375 C 4.007812 -2.585938 3.117188 -3.503906 2.390625 -4.609375 C 1.671875 -5.710938 1.191406 -7.003906 0.953125 -8.484375 L 6.3125 -9.84375 C 6.4375 -8.59375 6.789062 -7.570312 7.375 -6.78125 C 7.96875 -5.988281 8.710938 -5.398438 9.609375 -5.015625 C 10.503906 -4.628906 11.484375 -4.4375 12.546875 -4.4375 C 13.617188 -4.4375 14.519531 -4.609375 15.25 -4.953125 C 15.976562 -5.296875 16.535156 -5.753906 16.921875 -6.328125 C 17.304688 -6.910156 17.5 -7.554688 17.5 -8.265625 C 17.5 -9.046875 17.289062 -9.710938 16.875 -10.265625 C 16.46875 -10.816406 15.921875 -11.296875 15.234375 -11.703125 C 14.546875 -12.109375 13.769531 -12.484375 12.90625 -12.828125 C 12.039062 -13.171875 11.144531 -13.523438 10.21875 -13.890625 C 9.300781 -14.253906 8.410156 -14.664062 7.546875 -15.125 C 6.679688 -15.582031 5.90625 -16.125 5.21875 -16.75 C 4.53125 -17.382812 3.976562 -18.144531 3.5625 -19.03125 C 3.15625 -19.914062 2.953125 -20.96875 2.953125 -22.1875 C 2.953125 -23.519531 3.195312 -24.695312 3.6875 -25.71875 C 4.1875 -26.75 4.875 -27.617188 5.75 -28.328125 C 6.625 -29.035156 7.625 -29.570312 8.75 -29.9375 C 9.875 -30.300781 11.066406 -30.484375 12.328125 -30.484375 C 14.179688 -30.484375 15.910156 -30.0625 17.515625 -29.21875 C 19.117188 -28.375 20.4375 -27.035156 21.46875 -25.203125 L 16.984375 -22.46875 C 16.460938 -23.488281 15.773438 -24.273438 14.921875 -24.828125 C 14.066406 -25.390625 13.140625 -25.671875 12.140625 -25.671875 C 11.429688 -25.671875 10.789062 -25.535156 10.21875 -25.265625 C 9.644531 -25.003906 9.191406 -24.628906 8.859375 -24.140625 C 8.523438 -23.660156 8.359375 -23.101562 8.359375 -22.46875 C 8.359375 -21.757812 8.5625 -21.148438 8.96875 -20.640625 C 9.382812 -20.140625 9.929688 -19.703125 10.609375 -19.328125 C 11.296875 -18.953125 12.070312 -18.597656 12.9375 -18.265625 C 13.800781 -17.929688 14.691406 -17.582031 15.609375 -17.21875 C 16.535156 -16.863281 17.429688 -16.453125 18.296875 -15.984375 C 19.160156 -15.515625 19.9375 -14.957031 20.625 -14.3125 C 21.3125 -13.664062 21.859375 -12.890625 22.265625 -11.984375 C 22.679688 -11.078125 22.890625 -10 22.890625 -8.75 C 22.890625 -7.332031 22.613281 -6.0625 22.0625 -4.9375 C 21.519531 -3.8125 20.769531 -2.851562 19.8125 -2.0625 C 18.863281 -1.28125 17.757812 -0.679688 16.5 -0.265625 C 15.238281 0.140625 13.890625 0.34375 12.453125 0.34375 Z M 12.453125 0.34375 "/></g></g></g><g fill="#fe5020" fill-opacity="1"><g transform="translate(62.320814, 274.841862)"><g><path d="M 11.921875 0.421875 C 10.097656 0.421875 8.507812 0.125 7.15625 -0.46875 C 5.8125 -1.0625 4.691406 -1.875 3.796875 -2.90625 C 2.910156 -3.945312 2.25 -5.117188 1.8125 -6.421875 C 1.382812 -7.734375 1.171875 -9.109375 1.171875 -10.546875 C 1.171875 -11.929688 1.375 -13.28125 1.78125 -14.59375 C 2.195312 -15.914062 2.828125 -17.109375 3.671875 -18.171875 C 4.523438 -19.242188 5.609375 -20.097656 6.921875 -20.734375 C 8.234375 -21.367188 9.785156 -21.6875 11.578125 -21.6875 C 13.066406 -21.6875 14.359375 -21.46875 15.453125 -21.03125 C 16.554688 -20.601562 17.488281 -20.019531 18.25 -19.28125 C 19.019531 -18.539062 19.640625 -17.707031 20.109375 -16.78125 C 20.578125 -15.851562 20.910156 -14.890625 21.109375 -13.890625 C 21.316406 -12.890625 21.421875 -11.914062 21.421875 -10.96875 C 21.421875 -10.53125 21.398438 -10.117188 21.359375 -9.734375 C 21.328125 -9.347656 21.285156 -9.078125 21.234375 -8.921875 L 6.65625 -8.921875 C 6.8125 -8.003906 7.085938 -7.191406 7.484375 -6.484375 C 7.890625 -5.785156 8.460938 -5.238281 9.203125 -4.84375 C 9.941406 -4.457031 10.863281 -4.265625 11.96875 -4.265625 C 12.925781 -4.265625 13.832031 -4.4375 14.6875 -4.78125 C 15.539062 -5.125 16.332031 -5.707031 17.0625 -6.53125 L 20.640625 -3.40625 C 19.472656 -2.113281 18.175781 -1.148438 16.75 -0.515625 C 15.320312 0.109375 13.710938 0.421875 11.921875 0.421875 Z M 6.65625 -12.671875 L 16.328125 -12.671875 C 16.148438 -14.179688 15.644531 -15.332031 14.8125 -16.125 C 13.976562 -16.925781 12.890625 -17.328125 11.546875 -17.328125 C 10.523438 -17.328125 9.679688 -17.125 9.015625 -16.71875 C 8.359375 -16.3125 7.84375 -15.753906 7.46875 -15.046875 C 7.09375 -14.347656 6.820312 -13.554688 6.65625 -12.671875 Z M 6.65625 -12.671875 "/></g></g></g><g fill="#fe5020" fill-opacity="1"><g transform="translate(86.171813, 274.841862)"><g><path d="M 7.390625 0.421875 C 6.585938 0.421875 5.847656 0.289062 5.171875 0.03125 C 4.503906 -0.21875 3.96875 -0.675781 3.5625 -1.34375 C 3.15625 -2.019531 2.953125 -2.984375 2.953125 -4.234375 L 2.953125 -30.03125 L 8.140625 -30.03125 L 8.140625 -5.65625 C 8.140625 -5.15625 8.289062 -4.789062 8.59375 -4.5625 C 8.90625 -4.34375 9.320312 -4.234375 9.84375 -4.234375 C 10 -4.234375 10.207031 -4.242188 10.46875 -4.265625 C 10.726562 -4.285156 10.992188 -4.316406 11.265625 -4.359375 L 11.265625 0 C 10.722656 0.101562 10.097656 0.195312 9.390625 0.28125 C 8.679688 0.375 8.015625 0.421875 7.390625 0.421875 Z M 7.390625 0.421875 "/></g></g></g><g fill="#fe5020" fill-opacity="1"><g transform="translate(99.524487, 274.841862)"><g><path d="M 7.390625 0.421875 C 6.585938 0.421875 5.847656 0.289062 5.171875 0.03125 C 4.503906 -0.21875 3.96875 -0.675781 3.5625 -1.34375 C 3.15625 -2.019531 2.953125 -2.984375 2.953125 -4.234375 L 2.953125 -30.03125 L 8.140625 -30.03125 L 8.140625 -5.65625 C 8.140625 -5.15625 8.289062 -4.789062 8.59375 -4.5625 C 8.90625 -4.34375 9.320312 -4.234375 9.84375 -4.234375 C 10 -4.234375 10.207031 -4.242188 10.46875 -4.265625 C 10.726562 -4.285156 10.992188 -4.316406 11.265625 -4.359375 L 11.265625 0 C 10.722656 0.101562 10.097656 0.195312 9.390625 0.28125 C 8.679688 0.375 8.015625 0.421875 7.390625 0.421875 Z M 7.390625 0.421875 "/></g></g></g><g fill="#fe5020" fill-opacity="1"><g transform="translate(112.877155, 274.841862)"><g><path d="M 11.921875 0.421875 C 10.097656 0.421875 8.507812 0.125 7.15625 -0.46875 C 5.8125 -1.0625 4.691406 -1.875 3.796875 -2.90625 C 2.910156 -3.945312 2.25 -5.117188 1.8125 -6.421875 C 1.382812 -7.734375 1.171875 -9.109375 1.171875 -10.546875 C 1.171875 -11.929688 1.375 -13.28125 1.78125 -14.59375 C 2.195312 -15.914062 2.828125 -17.109375 3.671875 -18.171875 C 4.523438 -19.242188 5.609375 -20.097656 6.921875 -20.734375 C 8.234375 -21.367188 9.785156 -21.6875 11.578125 -21.6875 C 13.066406 -21.6875 14.359375 -21.46875 15.453125 -21.03125 C 16.554688 -20.601562 17.488281 -20.019531 18.25 -19.28125 C 19.019531 -18.539062 19.640625 -17.707031 20.109375 -16.78125 C 20.578125 -15.851562 20.910156 -14.890625 21.109375 -13.890625 C 21.316406 -12.890625 21.421875 -11.914062 21.421875 -10.96875 C 21.421875 -10.53125 21.398438 -10.117188 21.359375 -9.734375 C 21.328125 -9.347656 21.285156 -9.078125 21.234375 -8.921875 L 6.65625 -8.921875 C 6.8125 -8.003906 7.085938 -7.191406 7.484375 -6.484375 C 7.890625 -5.785156 8.460938 -5.238281 9.203125 -4.84375 C 9.941406 -4.457031 10.863281 -4.265625 11.96875 -4.265625 C 12.925781 -4.265625 13.832031 -4.4375 14.6875 -4.78125 C 15.539062 -5.125 16.332031 -5.707031 17.0625 -6.53125 L 20.640625 -3.40625 C 19.472656 -2.113281 18.175781 -1.148438 16.75 -0.515625 C 15.320312 0.109375 13.710938 0.421875 11.921875 0.421875 Z M 6.65625 -12.671875 L 16.328125 -12.671875 C 16.148438 -14.179688 15.644531 -15.332031 14.8125 -16.125 C 13.976562 -16.925781 12.890625 -17.328125 11.546875 -17.328125 C 10.523438 -17.328125 9.679688 -17.125 9.015625 -16.71875 C 8.359375 -16.3125 7.84375 -15.753906 7.46875 -15.046875 C 7.09375 -14.347656 6.820312 -13.554688 6.65625 -12.671875 Z M 6.65625 -12.671875 "/></g></g></g><g fill="#fe5020" fill-opacity="1"><g transform="translate(136.728151, 274.841862)"><g><path d="M 3.078125 0 L 3.078125 -21.234375 L 8.140625 -21.234375 L 8.140625 -17.65625 C 8.453125 -18.519531 8.898438 -19.25 9.484375 -19.84375 C 10.078125 -20.445312 10.75 -20.90625 11.5 -21.21875 C 12.257812 -21.53125 13.039062 -21.6875 13.84375 -21.6875 C 14.550781 -21.6875 15.25 -21.5625 15.9375 -21.3125 C 16.625 -21.0625 17.222656 -20.675781 17.734375 -20.15625 L 15.375 -15.90625 C 14.644531 -16.382812 13.867188 -16.625 13.046875 -16.625 C 12.441406 -16.625 11.84375 -16.476562 11.25 -16.1875 C 10.664062 -15.894531 10.132812 -15.441406 9.65625 -14.828125 C 9.1875 -14.210938 8.804688 -13.414062 8.515625 -12.4375 C 8.234375 -11.46875 8.09375 -10.3125 8.09375 -8.96875 L 8.09375 0 Z M 3.078125 0 "/></g></g></g><g fill="#ffffff" fill-opacity="1"><g transform="translate(155.224378, 274.841862)"><g/></g></g><g fill="#ffffff" fill-opacity="1"><g transform="translate(166.855663, 274.841862)"><g><path d="M 11.21875 0 L 11.21875 -11.71875 L -0.046875 -30.03125 L 6.484375 -30.03125 L 13.96875 -16.890625 L 21.515625 -30.03125 L 28.078125 -30.03125 L 16.859375 -11.71875 L 16.859375 0 Z M 11.21875 0 "/></g></g></g><g fill="#ffffff" fill-opacity="1"><g transform="translate(196.062084, 274.841862)"><g><path d="M 11.96875 0.421875 C 10.320312 0.421875 8.832031 0.128906 7.5 -0.453125 C 6.164062 -1.046875 5.019531 -1.851562 4.0625 -2.875 C 3.113281 -3.894531 2.378906 -5.070312 1.859375 -6.40625 C 1.335938 -7.75 1.078125 -9.171875 1.078125 -10.671875 C 1.078125 -12.171875 1.335938 -13.582031 1.859375 -14.90625 C 2.378906 -16.226562 3.113281 -17.394531 4.0625 -18.40625 C 5.019531 -19.425781 6.164062 -20.226562 7.5 -20.8125 C 8.832031 -21.394531 10.320312 -21.6875 11.96875 -21.6875 C 13.613281 -21.6875 15.097656 -21.394531 16.421875 -20.8125 C 17.753906 -20.226562 18.898438 -19.425781 19.859375 -18.40625 C 20.816406 -17.394531 21.550781 -16.226562 22.0625 -14.90625 C 22.582031 -13.582031 22.84375 -12.171875 22.84375 -10.671875 C 22.84375 -9.171875 22.582031 -7.75 22.0625 -6.40625 C 21.550781 -5.070312 20.816406 -3.894531 19.859375 -2.875 C 18.898438 -1.851562 17.753906 -1.046875 16.421875 -0.453125 C 15.097656 0.128906 13.613281 0.421875 11.96875 0.421875 Z M 11.96875 -4.03125 C 12.945312 -4.03125 13.785156 -4.210938 14.484375 -4.578125 C 15.179688 -4.941406 15.742188 -5.429688 16.171875 -6.046875 C 16.609375 -6.660156 16.929688 -7.367188 17.140625 -8.171875 C 17.347656 -8.972656 17.453125 -9.804688 17.453125 -10.671875 C 17.453125 -11.546875 17.347656 -12.375 17.140625 -13.15625 C 16.929688 -13.9375 16.609375 -14.628906 16.171875 -15.234375 C 15.742188 -15.847656 15.179688 -16.328125 14.484375 -16.671875 C 13.785156 -17.023438 12.945312 -17.203125 11.96875 -17.203125 C 10.664062 -17.203125 9.609375 -16.898438 8.796875 -16.296875 C 7.992188 -15.691406 7.40625 -14.890625 7.03125 -13.890625 C 6.664062 -12.898438 6.484375 -11.828125 6.484375 -10.671875 C 6.484375 -9.804688 6.582031 -8.972656 6.78125 -8.171875 C 6.988281 -7.367188 7.3125 -6.660156 7.75 -6.046875 C 8.195312 -5.429688 8.765625 -4.941406 9.453125 -4.578125 C 10.148438 -4.210938 10.988281 -4.03125 11.96875 -4.03125 Z M 11.96875 -4.03125 "/></g></g></g><g fill="#ffffff" fill-opacity="1"><g transform="translate(221.209439, 274.841862)"><g><path d="M 10.1875 0.421875 C 8.394531 0.421875 6.925781 -0.00390625 5.78125 -0.859375 C 4.644531 -1.710938 3.800781 -2.925781 3.25 -4.5 C 2.707031 -6.070312 2.4375 -7.921875 2.4375 -10.046875 L 2.4375 -21.234375 L 7.6875 -21.234375 L 7.6875 -9.890625 C 7.6875 -8.722656 7.789062 -7.71875 8 -6.875 C 8.207031 -6.039062 8.585938 -5.394531 9.140625 -4.9375 C 9.691406 -4.488281 10.492188 -4.265625 11.546875 -4.265625 C 12.148438 -4.265625 12.742188 -4.363281 13.328125 -4.5625 C 13.910156 -4.769531 14.4375 -5.140625 14.90625 -5.671875 C 15.382812 -6.203125 15.757812 -6.953125 16.03125 -7.921875 C 16.3125 -8.890625 16.453125 -10.140625 16.453125 -11.671875 L 16.453125 -21.234375 L 21.71875 -21.234375 L 21.71875 0 L 16.453125 0 L 16.453125 -2.484375 C 15.679688 -1.492188 14.757812 -0.757812 13.6875 -0.28125 C 12.613281 0.1875 11.445312 0.421875 10.1875 0.421875 Z M 10.1875 0.421875 "/></g></g></g><g fill="#ffffff" fill-opacity="1"><g transform="translate(247.185603, 274.841862)"><g><path d="M 3.078125 0 L 3.078125 -21.234375 L 8.140625 -21.234375 L 8.140625 -17.65625 C 8.453125 -18.519531 8.898438 -19.25 9.484375 -19.84375 C 10.078125 -20.445312 10.75 -20.90625 11.5 -21.21875 C 12.257812 -21.53125 13.039062 -21.6875 13.84375 -21.6875 C 14.550781 -21.6875 15.25 -21.5625 15.9375 -21.3125 C 16.625 -21.0625 17.222656 -20.675781 17.734375 -20.15625 L 15.375 -15.90625 C 14.644531 -16.382812 13.867188 -16.625 13.046875 -16.625 C 12.441406 -16.625 11.84375 -16.476562 11.25 -16.1875 C 10.664062 -15.894531 10.132812 -15.441406 9.65625 -14.828125 C 9.1875 -14.210938 8.804688 -13.414062 8.515625 -12.4375 C 8.234375 -11.46875 8.09375 -10.3125 8.09375 -8.96875 L 8.09375 0 Z M 3.078125 0 "/></g></g></g><g fill="#ffffff" fill-opacity="1"><g transform="translate(265.681177, 274.841862)"><g><path d="M 9.484375 0.421875 C 7.992188 0.421875 6.640625 0.15625 5.421875 -0.375 C 4.203125 -0.914062 3.175781 -1.632812 2.34375 -2.53125 C 1.519531 -3.4375 0.929688 -4.4375 0.578125 -5.53125 L 4.703125 -7.359375 C 4.898438 -6.847656 5.164062 -6.320312 5.5 -5.78125 C 5.84375 -5.238281 6.316406 -4.785156 6.921875 -4.421875 C 7.523438 -4.054688 8.289062 -3.875 9.21875 -3.875 C 10.03125 -3.875 10.6875 -4.003906 11.1875 -4.265625 C 11.695312 -4.523438 12.070312 -4.851562 12.3125 -5.25 C 12.550781 -5.644531 12.671875 -6.023438 12.671875 -6.390625 C 12.671875 -6.898438 12.476562 -7.304688 12.09375 -7.609375 C 11.707031 -7.921875 11.195312 -8.175781 10.5625 -8.375 C 9.925781 -8.570312 9.226562 -8.757812 8.46875 -8.9375 C 7.707031 -9.125 6.945312 -9.351562 6.1875 -9.625 C 5.4375 -9.894531 4.738281 -10.25 4.09375 -10.6875 C 3.457031 -11.125 2.945312 -11.691406 2.5625 -12.390625 C 2.1875 -13.097656 2 -13.988281 2 -15.0625 C 2 -16.1875 2.210938 -17.160156 2.640625 -17.984375 C 3.078125 -18.816406 3.660156 -19.503906 4.390625 -20.046875 C 5.128906 -20.597656 5.972656 -21.007812 6.921875 -21.28125 C 7.878906 -21.550781 8.867188 -21.6875 9.890625 -21.6875 C 11.710938 -21.6875 13.304688 -21.273438 14.671875 -20.453125 C 16.046875 -19.628906 17.132812 -18.5 17.9375 -17.0625 L 13.921875 -14.875 C 13.679688 -15.3125 13.378906 -15.734375 13.015625 -16.140625 C 12.660156 -16.554688 12.210938 -16.898438 11.671875 -17.171875 C 11.128906 -17.441406 10.476562 -17.578125 9.71875 -17.578125 C 8.863281 -17.578125 8.191406 -17.394531 7.703125 -17.03125 C 7.210938 -16.675781 6.96875 -16.25 6.96875 -15.75 C 6.96875 -15.289062 7.160156 -14.921875 7.546875 -14.640625 C 7.941406 -14.359375 8.460938 -14.113281 9.109375 -13.90625 C 9.753906 -13.707031 10.457031 -13.5 11.21875 -13.28125 C 11.988281 -13.070312 12.753906 -12.8125 13.515625 -12.5 C 14.285156 -12.1875 14.988281 -11.785156 15.625 -11.296875 C 16.269531 -10.816406 16.785156 -10.203125 17.171875 -9.453125 C 17.566406 -8.703125 17.765625 -7.769531 17.765625 -6.65625 C 17.765625 -5.414062 17.523438 -4.351562 17.046875 -3.46875 C 16.566406 -2.582031 15.925781 -1.847656 15.125 -1.265625 C 14.320312 -0.691406 13.429688 -0.269531 12.453125 0 C 11.472656 0.28125 10.484375 0.421875 9.484375 0.421875 Z M 9.484375 0.421875 "/></g></g></g><g fill="#ffffff" fill-opacity="1"><g transform="translate(286.174408, 274.841862)"><g><path d="M 11.921875 0.421875 C 10.097656 0.421875 8.507812 0.125 7.15625 -0.46875 C 5.8125 -1.0625 4.691406 -1.875 3.796875 -2.90625 C 2.910156 -3.945312 2.25 -5.117188 1.8125 -6.421875 C 1.382812 -7.734375 1.171875 -9.109375 1.171875 -10.546875 C 1.171875 -11.929688 1.375 -13.28125 1.78125 -14.59375 C 2.195312 -15.914062 2.828125 -17.109375 3.671875 -18.171875 C 4.523438 -19.242188 5.609375 -20.097656 6.921875 -20.734375 C 8.234375 -21.367188 9.785156 -21.6875 11.578125 -21.6875 C 13.066406 -21.6875 14.359375 -21.46875 15.453125 -21.03125 C 16.554688 -20.601562 17.488281 -20.019531 18.25 -19.28125 C 19.019531 -18.539062 19.640625 -17.707031 20.109375 -16.78125 C 20.578125 -15.851562 20.910156 -14.890625 21.109375 -13.890625 C 21.316406 -12.890625 21.421875 -11.914062 21.421875 -10.96875 C 21.421875 -10.53125 21.398438 -10.117188 21.359375 -9.734375 C 21.328125 -9.347656 21.285156 -9.078125 21.234375 -8.921875 L 6.65625 -8.921875 C 6.8125 -8.003906 7.085938 -7.191406 7.484375 -6.484375 C 7.890625 -5.785156 8.460938 -5.238281 9.203125 -4.84375 C 9.941406 -4.457031 10.863281 -4.265625 11.96875 -4.265625 C 12.925781 -4.265625 13.832031 -4.4375 14.6875 -4.78125 C 15.539062 -5.125 16.332031 -5.707031 17.0625 -6.53125 L 20.640625 -3.40625 C 19.472656 -2.113281 18.175781 -1.148438 16.75 -0.515625 C 15.320312 0.109375 13.710938 0.421875 11.921875 0.421875 Z M 6.65625 -12.671875 L 16.328125 -12.671875 C 16.148438 -14.179688 15.644531 -15.332031 14.8125 -16.125 C 13.976562 -16.925781 12.890625 -17.328125 11.546875 -17.328125 C 10.523438 -17.328125 9.679688 -17.125 9.015625 -16.71875 C 8.359375 -16.3125 7.84375 -15.753906 7.46875 -15.046875 C 7.09375 -14.347656 6.820312 -13.554688 6.65625 -12.671875 Z M 6.65625 -12.671875 "/></g></g></g><g fill="#ffffff" fill-opacity="1"><g transform="translate(310.025405, 274.841862)"><g><path d="M 7.390625 0.421875 C 6.585938 0.421875 5.847656 0.289062 5.171875 0.03125 C 4.503906 -0.21875 3.96875 -0.675781 3.5625 -1.34375 C 3.15625 -2.019531 2.953125 -2.984375 2.953125 -4.234375 L 2.953125 -30.03125 L 8.140625 -30.03125 L 8.140625 -5.65625 C 8.140625 -5.15625 8.289062 -4.789062 8.59375 -4.5625 C 8.90625 -4.34375 9.320312 -4.234375 9.84375 -4.234375 C 10 -4.234375 10.207031 -4.242188 10.46875 -4.265625 C 10.726562 -4.285156 10.992188 -4.316406 11.265625 -4.359375 L 11.265625 0 C 10.722656 0.101562 10.097656 0.195312 9.390625 0.28125 C 8.679688 0.375 8.015625 0.421875 7.390625 0.421875 Z M 7.390625 0.421875 "/></g></g></g><g fill="#ffffff" fill-opacity="1"><g transform="translate(323.378072, 274.841862)"><g><path d="M 4.3125 0 L 4.3125 -16.890625 L 0.421875 -16.890625 L 0.421875 -21.234375 L 4.359375 -21.234375 L 4.359375 -24.078125 C 4.359375 -25.117188 4.539062 -26.035156 4.90625 -26.828125 C 5.28125 -27.617188 5.78125 -28.285156 6.40625 -28.828125 C 7.039062 -29.378906 7.765625 -29.789062 8.578125 -30.0625 C 9.390625 -30.34375 10.242188 -30.484375 11.140625 -30.484375 C 11.847656 -30.484375 12.523438 -30.398438 13.171875 -30.234375 C 13.816406 -30.066406 14.421875 -29.859375 14.984375 -29.609375 L 13.28125 -25.34375 C 13.039062 -25.5 12.773438 -25.625 12.484375 -25.71875 C 12.191406 -25.820312 11.90625 -25.875 11.625 -25.875 C 11.101562 -25.875 10.644531 -25.695312 10.25 -25.34375 C 9.863281 -24.988281 9.671875 -24.390625 9.671875 -23.546875 L 9.671875 -21.234375 L 14.625 -21.234375 L 14.625 -16.890625 L 9.671875 -16.890625 L 9.671875 0 Z M 4.3125 0 "/></g></g></g><g fill="#ffffff" fill-opacity="1"><g transform="translate(114.323346, 301.395508)"><g><path d="M 4.65625 0.078125 C 3.90625 0.078125 3.226562 -0.09375 2.625 -0.4375 C 2.019531 -0.78125 1.546875 -1.253906 1.203125 -1.859375 C 0.859375 -2.460938 0.6875 -3.144531 0.6875 -3.90625 C 0.6875 -4.664062 0.859375 -5.347656 1.203125 -5.953125 C 1.546875 -6.554688 2.019531 -7.023438 2.625 -7.359375 C 3.226562 -7.691406 3.90625 -7.859375 4.65625 -7.859375 C 5.40625 -7.859375 6.082031 -7.691406 6.6875 -7.359375 C 7.289062 -7.023438 7.765625 -6.554688 8.109375 -5.953125 C 8.453125 -5.347656 8.625 -4.664062 8.625 -3.90625 C 8.625 -3.144531 8.453125 -2.460938 8.109375 -1.859375 C 7.765625 -1.253906 7.289062 -0.78125 6.6875 -0.4375 C 6.082031 -0.09375 5.40625 0.078125 4.65625 0.078125 Z M 4.65625 -0.859375 C 5.207031 -0.859375 5.703125 -0.984375 6.140625 -1.234375 C 6.585938 -1.492188 6.9375 -1.851562 7.1875 -2.3125 C 7.4375 -2.78125 7.5625 -3.3125 7.5625 -3.90625 C 7.5625 -4.5 7.4375 -5.023438 7.1875 -5.484375 C 6.9375 -5.953125 6.585938 -6.3125 6.140625 -6.5625 C 5.703125 -6.820312 5.207031 -6.953125 4.65625 -6.953125 C 4.101562 -6.953125 3.609375 -6.820312 3.171875 -6.5625 C 2.734375 -6.3125 2.382812 -5.953125 2.125 -5.484375 C 1.875 -5.023438 1.75 -4.5 1.75 -3.90625 C 1.75 -3.3125 1.875 -2.78125 2.125 -2.3125 C 2.382812 -1.851562 2.734375 -1.492188 3.171875 -1.234375 C 3.609375 -0.984375 4.101562 -0.859375 4.65625 -0.859375 Z M 4.65625 -0.859375 "/></g></g></g><g fill="#ffffff" fill-opacity="1"><g transform="translate(128.954225, 301.395508)"><g><path d="M 5.453125 -7.859375 C 6.429688 -7.859375 7.207031 -7.570312 7.78125 -7 C 8.363281 -6.4375 8.65625 -5.613281 8.65625 -4.53125 L 8.65625 0 L 7.59375 0 L 7.59375 -4.421875 C 7.59375 -5.234375 7.390625 -5.851562 6.984375 -6.28125 C 6.578125 -6.707031 6 -6.921875 5.25 -6.921875 C 4.414062 -6.921875 3.75 -6.671875 3.25 -6.171875 C 2.757812 -5.671875 2.515625 -4.976562 2.515625 -4.09375 L 2.515625 0 L 1.46875 0 L 1.46875 -7.8125 L 2.484375 -7.8125 L 2.484375 -6.375 C 2.765625 -6.84375 3.160156 -7.207031 3.671875 -7.46875 C 4.179688 -7.726562 4.773438 -7.859375 5.453125 -7.859375 Z M 5.453125 -7.859375 "/></g></g></g><g fill="#ffffff" fill-opacity="1"><g transform="translate(144.3269, 301.395508)"><g><path d="M 1.46875 -11.015625 L 2.515625 -11.015625 L 2.515625 0 L 1.46875 0 Z M 1.46875 -11.015625 "/></g></g></g><g fill="#ffffff" fill-opacity="1"><g transform="translate(153.646484, 301.395508)"><g><path d="M 1.46875 -7.8125 L 2.515625 -7.8125 L 2.515625 0 L 1.46875 0 Z M 2 -9.515625 C 1.78125 -9.515625 1.597656 -9.585938 1.453125 -9.734375 C 1.304688 -9.878906 1.234375 -10.054688 1.234375 -10.265625 C 1.234375 -10.460938 1.304688 -10.632812 1.453125 -10.78125 C 1.597656 -10.9375 1.78125 -11.015625 2 -11.015625 C 2.21875 -11.015625 2.398438 -10.941406 2.546875 -10.796875 C 2.691406 -10.648438 2.765625 -10.476562 2.765625 -10.28125 C 2.765625 -10.0625 2.691406 -9.878906 2.546875 -9.734375 C 2.398438 -9.585938 2.21875 -9.515625 2 -9.515625 Z M 2 -9.515625 "/></g></g></g><g fill="#ffffff" fill-opacity="1"><g transform="translate(162.966071, 301.395508)"><g><path d="M 5.453125 -7.859375 C 6.429688 -7.859375 7.207031 -7.570312 7.78125 -7 C 8.363281 -6.4375 8.65625 -5.613281 8.65625 -4.53125 L 8.65625 0 L 7.59375 0 L 7.59375 -4.421875 C 7.59375 -5.234375 7.390625 -5.851562 6.984375 -6.28125 C 6.578125 -6.707031 6 -6.921875 5.25 -6.921875 C 4.414062 -6.921875 3.75 -6.671875 3.25 -6.171875 C 2.757812 -5.671875 2.515625 -4.976562 2.515625 -4.09375 L 2.515625 0 L 1.46875 0 L 1.46875 -7.8125 L 2.484375 -7.8125 L 2.484375 -6.375 C 2.765625 -6.84375 3.160156 -7.207031 3.671875 -7.46875 C 4.179688 -7.726562 4.773438 -7.859375 5.453125 -7.859375 Z M 5.453125 -7.859375 "/></g></g></g><g fill="#ffffff" fill-opacity="1"><g transform="translate(178.338747, 301.395508)"><g><path d="M 8.265625 -3.578125 L 1.734375 -3.578125 C 1.796875 -2.765625 2.109375 -2.109375 2.671875 -1.609375 C 3.234375 -1.109375 3.945312 -0.859375 4.8125 -0.859375 C 5.289062 -0.859375 5.734375 -0.941406 6.140625 -1.109375 C 6.546875 -1.285156 6.898438 -1.546875 7.203125 -1.890625 L 7.796875 -1.203125 C 7.441406 -0.785156 7.003906 -0.46875 6.484375 -0.25 C 5.972656 -0.03125 5.40625 0.078125 4.78125 0.078125 C 3.976562 0.078125 3.265625 -0.09375 2.640625 -0.4375 C 2.023438 -0.78125 1.546875 -1.253906 1.203125 -1.859375 C 0.859375 -2.460938 0.6875 -3.144531 0.6875 -3.90625 C 0.6875 -4.664062 0.847656 -5.347656 1.171875 -5.953125 C 1.503906 -6.554688 1.957031 -7.023438 2.53125 -7.359375 C 3.113281 -7.691406 3.769531 -7.859375 4.5 -7.859375 C 5.21875 -7.859375 5.863281 -7.691406 6.4375 -7.359375 C 7.007812 -7.023438 7.457031 -6.554688 7.78125 -5.953125 C 8.113281 -5.359375 8.28125 -4.675781 8.28125 -3.90625 Z M 4.5 -6.96875 C 3.75 -6.96875 3.117188 -6.722656 2.609375 -6.234375 C 2.097656 -5.753906 1.804688 -5.128906 1.734375 -4.359375 L 7.265625 -4.359375 C 7.203125 -5.128906 6.914062 -5.753906 6.40625 -6.234375 C 5.894531 -6.722656 5.257812 -6.96875 4.5 -6.96875 Z M 4.5 -6.96875 "/></g></g></g><g fill="#ffffff" fill-opacity="1"><g transform="translate(192.6284, 301.395508)"><g/></g></g><g fill="#ffffff" fill-opacity="1"><g transform="translate(201.844132, 301.395508)"><g><path d="M 3.5625 0.078125 C 2.925781 0.078125 2.316406 -0.0078125 1.734375 -0.1875 C 1.160156 -0.375 0.710938 -0.609375 0.390625 -0.890625 L 0.859375 -1.71875 C 1.179688 -1.457031 1.585938 -1.242188 2.078125 -1.078125 C 2.578125 -0.921875 3.097656 -0.84375 3.640625 -0.84375 C 4.347656 -0.84375 4.875 -0.953125 5.21875 -1.171875 C 5.5625 -1.398438 5.734375 -1.71875 5.734375 -2.125 C 5.734375 -2.40625 5.640625 -2.628906 5.453125 -2.796875 C 5.265625 -2.960938 5.023438 -3.085938 4.734375 -3.171875 C 4.441406 -3.253906 4.0625 -3.332031 3.59375 -3.40625 C 2.957031 -3.53125 2.445312 -3.65625 2.0625 -3.78125 C 1.675781 -3.90625 1.347656 -4.113281 1.078125 -4.40625 C 0.804688 -4.707031 0.671875 -5.117188 0.671875 -5.640625 C 0.671875 -6.296875 0.941406 -6.828125 1.484375 -7.234375 C 2.023438 -7.648438 2.78125 -7.859375 3.75 -7.859375 C 4.257812 -7.859375 4.765625 -7.789062 5.265625 -7.65625 C 5.773438 -7.53125 6.191406 -7.359375 6.515625 -7.140625 L 6.0625 -6.296875 C 5.414062 -6.742188 4.644531 -6.96875 3.75 -6.96875 C 3.082031 -6.96875 2.578125 -6.847656 2.234375 -6.609375 C 1.890625 -6.367188 1.71875 -6.054688 1.71875 -5.671875 C 1.71875 -5.367188 1.8125 -5.128906 2 -4.953125 C 2.195312 -4.773438 2.4375 -4.644531 2.71875 -4.5625 C 3.007812 -4.476562 3.410156 -4.390625 3.921875 -4.296875 C 4.546875 -4.179688 5.046875 -4.0625 5.421875 -3.9375 C 5.796875 -3.820312 6.113281 -3.617188 6.375 -3.328125 C 6.644531 -3.046875 6.78125 -2.65625 6.78125 -2.15625 C 6.78125 -1.46875 6.492188 -0.921875 5.921875 -0.515625 C 5.359375 -0.117188 4.570312 0.078125 3.5625 0.078125 Z M 3.5625 0.078125 "/></g></g></g><g fill="#ffffff" fill-opacity="1"><g transform="translate(214.427637, 301.395508)"><g><path d="M 5.578125 -0.46875 C 5.378906 -0.289062 5.132812 -0.15625 4.84375 -0.0625 C 4.550781 0.03125 4.25 0.078125 3.9375 0.078125 C 3.195312 0.078125 2.628906 -0.117188 2.234375 -0.515625 C 1.835938 -0.910156 1.640625 -1.472656 1.640625 -2.203125 L 1.640625 -6.921875 L 0.25 -6.921875 L 0.25 -7.8125 L 1.640625 -7.8125 L 1.640625 -9.515625 L 2.703125 -9.515625 L 2.703125 -7.8125 L 5.078125 -7.8125 L 5.078125 -6.921875 L 2.703125 -6.921875 L 2.703125 -2.25 C 2.703125 -1.789062 2.816406 -1.4375 3.046875 -1.1875 C 3.285156 -0.945312 3.617188 -0.828125 4.046875 -0.828125 C 4.265625 -0.828125 4.472656 -0.859375 4.671875 -0.921875 C 4.878906 -0.992188 5.054688 -1.097656 5.203125 -1.234375 Z M 5.578125 -0.46875 "/></g></g></g><g fill="#ffffff" fill-opacity="1"><g transform="translate(225.779763, 301.395508)"><g><path d="M 4.65625 0.078125 C 3.90625 0.078125 3.226562 -0.09375 2.625 -0.4375 C 2.019531 -0.78125 1.546875 -1.253906 1.203125 -1.859375 C 0.859375 -2.460938 0.6875 -3.144531 0.6875 -3.90625 C 0.6875 -4.664062 0.859375 -5.347656 1.203125 -5.953125 C 1.546875 -6.554688 2.019531 -7.023438 2.625 -7.359375 C 3.226562 -7.691406 3.90625 -7.859375 4.65625 -7.859375 C 5.40625 -7.859375 6.082031 -7.691406 6.6875 -7.359375 C 7.289062 -7.023438 7.765625 -6.554688 8.109375 -5.953125 C 8.453125 -5.347656 8.625 -4.664062 8.625 -3.90625 C 8.625 -3.144531 8.453125 -2.460938 8.109375 -1.859375 C 7.765625 -1.253906 7.289062 -0.78125 6.6875 -0.4375 C 6.082031 -0.09375 5.40625 0.078125 4.65625 0.078125 Z M 4.65625 -0.859375 C 5.207031 -0.859375 5.703125 -0.984375 6.140625 -1.234375 C 6.585938 -1.492188 6.9375 -1.851562 7.1875 -2.3125 C 7.4375 -2.78125 7.5625 -3.3125 7.5625 -3.90625 C 7.5625 -4.5 7.4375 -5.023438 7.1875 -5.484375 C 6.9375 -5.953125 6.585938 -6.3125 6.140625 -6.5625 C 5.703125 -6.820312 5.207031 -6.953125 4.65625 -6.953125 C 4.101562 -6.953125 3.609375 -6.820312 3.171875 -6.5625 C 2.734375 -6.3125 2.382812 -5.953125 2.125 -5.484375 C 1.875 -5.023438 1.75 -4.5 1.75 -3.90625 C 1.75 -3.3125 1.875 -2.78125 2.125 -2.3125 C 2.382812 -1.851562 2.734375 -1.492188 3.171875 -1.234375 C 3.609375 -0.984375 4.101562 -0.859375 4.65625 -0.859375 Z M 4.65625 -0.859375 "/></g></g></g><g fill="#ffffff" fill-opacity="1"><g transform="translate(240.410645, 301.395508)"><g><path d="M 2.484375 -6.28125 C 2.722656 -6.800781 3.085938 -7.191406 3.578125 -7.453125 C 4.066406 -7.722656 4.675781 -7.859375 5.40625 -7.859375 L 5.40625 -6.84375 L 5.15625 -6.859375 C 4.332031 -6.859375 3.6875 -6.601562 3.21875 -6.09375 C 2.75 -5.59375 2.515625 -4.890625 2.515625 -3.984375 L 2.515625 0 L 1.46875 0 L 1.46875 -7.8125 L 2.484375 -7.8125 Z M 2.484375 -6.28125 "/></g></g></g><g fill="#ffffff" fill-opacity="1"><g transform="translate(251.68859, 301.395508)"><g><path d="M 8.265625 -3.578125 L 1.734375 -3.578125 C 1.796875 -2.765625 2.109375 -2.109375 2.671875 -1.609375 C 3.234375 -1.109375 3.945312 -0.859375 4.8125 -0.859375 C 5.289062 -0.859375 5.734375 -0.941406 6.140625 -1.109375 C 6.546875 -1.285156 6.898438 -1.546875 7.203125 -1.890625 L 7.796875 -1.203125 C 7.441406 -0.785156 7.003906 -0.46875 6.484375 -0.25 C 5.972656 -0.03125 5.40625 0.078125 4.78125 0.078125 C 3.976562 0.078125 3.265625 -0.09375 2.640625 -0.4375 C 2.023438 -0.78125 1.546875 -1.253906 1.203125 -1.859375 C 0.859375 -2.460938 0.6875 -3.144531 0.6875 -3.90625 C 0.6875 -4.664062 0.847656 -5.347656 1.171875 -5.953125 C 1.503906 -6.554688 1.957031 -7.023438 2.53125 -7.359375 C 3.113281 -7.691406 3.769531 -7.859375 4.5 -7.859375 C 5.21875 -7.859375 5.863281 -7.691406 6.4375 -7.359375 C 7.007812 -7.023438 7.457031 -6.554688 7.78125 -5.953125 C 8.113281 -5.359375 8.28125 -4.675781 8.28125 -3.90625 Z M 4.5 -6.96875 C 3.75 -6.96875 3.117188 -6.722656 2.609375 -6.234375 C 2.097656 -5.753906 1.804688 -5.128906 1.734375 -4.359375 L 7.265625 -4.359375 C 7.203125 -5.128906 6.914062 -5.753906 6.40625 -6.234375 C 5.894531 -6.722656 5.257812 -6.96875 4.5 -6.96875 Z M 4.5 -6.96875 "/></g></g></g></svg>